# AST/ASF file generated using VICON BodyLanguage
# -----------------------------------------------
:version 1.10
:name VICON
:units
  mass 1.0
  length 0.45
  angle deg
:documentation
   .ast/.asf automatically generated from VICON data using
   VICON BodyBuilder and BodyLanguage model FoxedUp or BRILLIANT.MOD
:root
   order TX TY TZ RX RY RZ
   axis XYZ
   position 0 0 0  
   orientation 0 0 0 
:bonedata
  begin
     id 1 
     name lhipjoint
     direction 0.714689 -0.624256 0.315473 
     length 2.45343 
     axis 0 0 0  XYZ
  end
  begin
     id 2 
     name lfemur
     direction 0.34202 -0.939693 0  
     length 6.59069  
     axis 0 0 20  XYZ
    dof rx ry rz
    limits (-160.0 20.0)
           (-70.0 70.0)
           (-60.0 70.0)
  end
  begin
     id 3 
     name ltibia
     direction 0.34202 -0.939693 0   
     length 6.73476   
     axis 0 0 20   XYZ
    dof rx
    limits (-10.0 170.0)
  end
  begin
     id 4 
     name lfoot
     direction 0.0718085 -0.197292 0.977711   
     length 1.52607   
     axis -90 7.62852e-016 20   XYZ
    dof rx rz
    limits (-45.0 90.0)
           (-70.0 20.0)
  end
  begin
     id 5 
     name ltoes
     direction 1.53553e-011 -4.22024e-011 1   
     length 0.777832   
     axis -90 7.62852e-016 20   XYZ
    dof rx
    limits (-90.0 20.0)
  end
  begin
     id 6 
     name rhipjoint
     direction -0.727419 -0.612432 0.309497   
     length 2.50079  
     axis 0 0 0  XYZ 
  end
  begin
     id 7 
     name rfemur
     direction -0.34202 -0.939693 0   
     length 6.51665   
     axis 0 0 -20   XYZ
    dof rx ry rz
    limits (-160.0 20.0)
           (-70.0 70.0)
           (-70.0 60.0)
  end
  begin
     id 8 
     name rtibia
     direction -0.34202 -0.939693 0   
     length 6.48919   
     axis 0 0 -20   XYZ
    dof rx
    limits (-10.0 170.0)
 end
 begin
     id 9 
     name rfoot
     direction -0.112205 -0.308282 0.944655   
     length 1.68717  
     axis -90 -7.62852e-016 -20   XYZ
    dof rx rz
    limits (-45.0 90.0)
           (-20.0 70.0)
  end
  begin
     id 10 
     name rtoes
     direction -1.53583e-011 -4.21993e-011 1   
     length 0.846859   
     axis -90 -7.62852e-016 -20   XYZ
    dof rx
    limits (-90.0 20.0)
  end
  begin
     id 11 
     name lowerback
     direction -0.00119603 0.996364 -0.0851956   
     length 1.67242   
     axis 0 0 0   XYZ
    dof rx ry rz
    limits (-20.0 45.0)
           (-30.0 30.0)
           (-30.0 30.0)
  end
  begin
     id 12 
     name upperback
     direction -0.00531001 0.998318 0.0577248   
     length 1.64819   
     axis 0 0 0   XYZ
    dof rx ry rz
    limits (-20.0 45.0)
           (-30.0 30.0)
           (-30.0 30.0)
  end
  begin
     id 13 
     name thorax
     direction -0.00653676 0.995132 0.0983291   
     length 1.67429   
     axis 0 0 0   XYZ
    dof rx ry rz
    limits (-20.0 45.0)
           (-30.0 30.0)
           (-30.0 30.0)
  end
  begin
     id 14 
     name lowerneck
     direction 0.0141424 0.999886 0.00525412   
     length 1.59623   
     axis 0 0 0   XYZ
    dof rx ry rz
    limits (-20.0 45.0)
           (-30.0 30.0)
           (-30.0 30.0)
  end
  begin
     id 15 
     name upperneck
     direction -0.0640064 0.987178 -0.146232   
     length 1.59576   
     axis 0 0 0   XYZ
    dof rx ry rz
    limits (-20.0 45.0)
           (-30.0 30.0)
           (-30.0 30.0)
  end
  begin
     id 16
     name head
     direction -0.0222942 0.998496 -0.0500859  
     length 1.60959  
     axis 0 0 0   XYZ
    dof rx ry rz
    limits (-20.0 45.0)
           (-30.0 30.0)
           (-30.0 30.0)
  end
  begin
     id 17 
     name lclavicle
     direction 0.908549 0.392612 0.142806  
     length 2.80649  
     axis 0 0 0   XYZ
    dof ry rz
    limits (-20.0 10.0)
           (0.0 20.0)
  end
  begin
     id 18 
     name lhumerus
     direction 1 -4.48968e-011 1.08832e-028   
     length 4.2884   
     axis -180 -30 -90   XYZ
    dof rx ry rz
    limits (-60.0 90.0)
           (-90.0 90.0)
           (-90.0 90.0)
  end
  begin
     id 19
     name lradius
     direction 1 -4.48952e-011 -3.02642e-028   
     length 3.06552   
     axis -180 -30 -90   XYZ
    dof rx
    limits (-10.0 170.0)
  end
  begin
     id 20
     name lwrist
     direction 1 -4.49014e-011 1.58672e-027   
     length 1.53276   
     axis -1.65735e-015 90 90   XYZ
    dof ry
    limits (-180.0 0.0)
 end
  begin
     id 21 
     name lhand
     direction 1 -4.48928e-011 3.17344e-027   
     length 0.753045   
     axis -2.02492e-015 90 90   XYZ
    dof rx rz
    limits (-90.0 90.0)
           (-45.0 45.0)
  end
  begin
     id 22 
     name lfingers
     direction 1 -4.48958e-011 6.34687e-027   
     length 0.607124   
     axis -4.04985e-015 90 90   XYZ
    dof rx
    limits (0.0 90.0)
  end
  begin
     id 23
     name lthumb
     direction 0.707107 -6.34905e-011 0.707107   
     length 0.871712   
     axis -90 45 2.85299e-015   XYZ
    dof rx rz
    limits (-45.0 45.0)
           (-45.0 45.0)
  end
  begin
     id 24 
     name rclavicle
     direction -0.885098 0.45949 0.0739604   
     length 2.9478  
     axis 0 0 0   XYZ 
    dof ry rz
    limits (-10.0 20.0)
           (-20.0 0.0)
  end
  begin
     id 25 
     name rhumerus
     direction -1 -4.4898e-011 -2.61739e-027  
     length 4.52172   
     axis -180 30 90   XYZ
    dof rx ry rz
    limits (-90.0 60.0)
           (-90.0 90.0)
           (-90.0 90.0)
  end
  begin
     id 26 
     name rradius
     direction -1 -4.48945e-011 9.02552e-028   
     length 2.8914   
     axis -180 30 90   XYZ
    dof rx
    limits (-10.0 170.0)
  end
  begin
     id 27 
     name rwrist
     direction -1 -4.49018e-011 1.58672e-027   
     length 1.4457   
     axis -1.65735e-015 -90 -90   XYZ
    dof ry
    limits (-180.0 0.0)
  end
  begin
     id 28
     name rhand
     direction -1 -4.48825e-011 3.17344e-027   
     length 0.680541   
     axis -2.02492e-015 -90 -90   XYZ
    dof rx rz
    limits (-90.0 90.0)
           (-45.0 45.0)
  end
  begin
     id 29
     name rfingers
     direction -1 -4.49067e-011 6.34687e-027   
     length 0.54867   
     axis -4.04985e-015 -90 -90   XYZ
    dof rx
    limits (0.0 90.0)
  end
  begin
     id 30
     name rthumb
     direction -0.707107 -6.34833e-011 0.707107   
     length 0.787783   
     axis -90 -45 -2.85299e-015   XYZ
    dof rx rz
    limits (-45.0 45.0)
           (-45.0 45.0)
  end
:hierarchy
  begin
    root lhipjoint rhipjoint lowerback
    lhipjoint lfemur
    lfemur ltibia
    ltibia lfoot
    lfoot ltoes
    rhipjoint rfemur
    rfemur rtibia
    rtibia rfoot
    rfoot rtoes
    lowerback upperback
    upperback thorax
    thorax lowerneck lclavicle rclavicle
    lowerneck upperneck
    upperneck head
    lclavicle lhumerus
    lhumerus lradius
    lradius lwrist
    lwrist lhand lthumb
    lhand lfingers
    rclavicle rhumerus
    rhumerus rradius
    rradius rwrist
    rwrist rhand rthumb
    rhand rfingers
  end

#!OML:ASF E:\emotionWalksFemale\Project 1\Capture day 1\Session 1\Female1.ASF
:FULLY-SPECIFIED
:DEGREES
32
root 9.14357 15.5252 22.5082 179.002 1.25446 -178.879
lowerback 8.46193 1.64147 1.96223
upperback -4.22153 2.50457 -0.0600265
thorax -9.15668 1.11969 -1.57576
lowerneck -6.00128 -1.51897 -5.47213
upperneck 11.1533 -2.33421 5.36254
head 4.44109 -1.17276 2.40875
rclavicle -3.59055e-015 5.1684e-015
rhumerus -46.6426 6.47362 -89.7534
rradius 41.2258
rwrist 23.0515
rhand -6.54366 -59.4496
rfingers 7.12502
rthumb 19.3097 -88.5109
lclavicle -3.59055e-015 5.1684e-015
lhumerus -43.2665 0.679908 84.9916
lradius 37.0143
lwrist -11.8932
lhand -1.68998 -32.4849
lfingers 7.12502
lthumb 23.9707 -3.9614
rfemur 0.217792 15.7826 25.3071
rtibia 15.3551
rfoot -13.9726 -26.0081
rtoes 0.152591
lfemur -5.85611 -16.9555 -22.5225
ltibia 23.6604
lfoot -19.0075 16.9984
ltoes -39.9778
33
root 9.14379 15.5259 22.5107 179.036 1.49613 -178.924
lowerback 8.5097 1.71885 1.95857
upperback -4.24756 2.60663 -0.10001
thorax -9.20767 1.16707 -1.63502
lowerneck -6.03944 -1.54177 -5.41807
upperneck 11.1541 -2.35801 5.28647
head 4.44781 -1.18506 2.37469
rclavicle -1.74371e-014 -4.17448e-015
rhumerus -46.589 6.70507 -89.8872
rradius 40.9813
rwrist 22.1422
rhand -7.91036 -59.4055
rfingers 7.12502
rthumb 17.9951 -88.593
lclavicle -1.74371e-014 -4.17448e-015
lhumerus -43.2209 0.786382 84.7657
lradius 37.0149
lwrist -11.8626
lhand -1.27079 -32.3348
lfingers 7.12502
lthumb 24.3726 -3.86475
rfemur 0.0723158 15.8467 25.2144
rtibia 15.4515
rfoot -13.9212 -25.8862
rtoes -0.0803054
lfemur -5.84885 -16.8702 -22.5752
ltibia 23.6055
lfoot -18.9518 17.184
ltoes -40.0121
34
root 9.14314 15.5244 22.5155 179.043 1.77151 -178.94
lowerback 8.61061 1.81322 1.9622
upperback -4.26386 2.73513 -0.111709
thorax -9.27927 1.22704 -1.6747
lowerneck -6.0818 -1.54003 -5.43827
upperneck 11.1979 -2.36117 5.34098
head 4.46922 -1.1845 2.39454
rclavicle 4.5472e-015 -4.96962e-015
rhumerus -46.403 6.71441 -89.7544
rradius 40.7013
rwrist 22.2109
rhand -7.69252 -59.6369
rfingers 7.12502
rthumb 18.2047 -88.805
lclavicle 4.5472e-015 -4.96962e-015
lhumerus -43.1602 0.903668 84.5847
lradius 36.9372
lwrist -12.1301
lhand -1.2408 -32.3588
lfingers 7.12502
lthumb 24.4014 -3.89265
rfemur -0.0498436 15.8492 25.1498
rtibia 15.5529
rfoot -13.9927 -25.6189
rtoes 0.226859
lfemur -5.82043 -16.7765 -22.6009
ltibia 23.5451
lfoot -18.9513 17.2938
ltoes -39.862
35
root 9.14363 15.5236 22.5183 179.018 1.83986 -178.933
lowerback 8.71826 1.83827 1.95078
upperback -4.27749 2.77181 -0.0895728
thorax -9.35792 1.24452 -1.65567
lowerneck -6.12918 -1.52433 -5.47059
upperneck 11.2956 -2.34584 5.37573
head 4.50679 -1.17733 2.41143
rclavicle -3.24889e-014 -1.19271e-015
rhumerus -46.287 6.54401 -89.4327
rradius 40.5812
rwrist 22.3318
rhand -7.52906 -59.2171
rfingers 7.12502
rthumb 18.3619 -88.3705
lclavicle -3.24889e-014 -1.19271e-015
lhumerus -43.1579 0.98424 84.4468
lradius 36.8423
lwrist -12.4431
lhand -1.54368 -32.5859
lfingers 7.12502
lthumb 24.111 -4.08091
rfemur -0.0978719 15.8281 25.1544
rtibia 15.6572
rfoot -14.0549 -25.5141
rtoes 0.333113
lfemur -5.77741 -16.775 -22.5944
ltibia 23.4762
lfoot -18.9465 17.3533
ltoes -40.0086
36
root 9.14513 15.5248 22.5186 178.98 1.80032 -178.978
lowerback 8.81186 1.82283 1.90312
upperback -4.29289 2.74703 -0.092107
thorax -9.43302 1.23369 -1.63204
lowerneck -6.20808 -1.5278 -5.53985
upperneck 11.39 -2.34137 5.35432
head 4.54928 -1.17865 2.41622
rclavicle 1.51449e-014 -1.59028e-015
rhumerus -46.2829 6.39086 -89.2183
rradius 40.5361
rwrist 21.7588
rhand -7.52815 -58.7008
rfingers 7.12502
rthumb 18.3628 -87.8541
lclavicle 1.51449e-014 -1.59028e-015
lhumerus -43.1588 1.16649 84.2583
lradius 36.8052
lwrist -12.6051
lhand -1.53566 -32.501
lfingers 7.12502
lthumb 24.1187 -3.997
rfemur -0.089964 15.8012 25.1251
rtibia 15.7225
rfoot -14.0391 -25.5171
rtoes 0.466833
lfemur -5.71642 -16.8395 -22.6513
ltibia 23.4203
lfoot -18.9188 17.3716
ltoes -40.3032
37
root 9.1465 15.5247 22.5183 178.922 1.7242 -179.077
lowerback 8.87843 1.79586 1.81376
upperback -4.26408 2.69534 -0.121195
thorax -9.44504 1.21203 -1.6063
lowerneck -6.33602 -1.53822 -5.61504
upperneck 11.4306 -2.33913 5.35478
head 4.58407 -1.1775 2.42834
rclavicle -3.12713e-014 -4.27387e-015
rhumerus -46.1907 6.2365 -89.0526
rradius 40.3937
rwrist 21.5145
rhand -7.37166 -58.7081
rfingers 7.12502
rthumb 18.5133 -87.8471
lclavicle -3.12713e-014 -4.27387e-015
lhumerus -43.0975 1.36751 84.055
lradius 36.7727
lwrist -12.7898
lhand -1.65692 -32.1701
lfingers 7.12502
lthumb 24.0024 -3.65081
rfemur -0.0386715 15.7109 25.0422
rtibia 15.7617
rfoot -13.9634 -25.5325
rtoes 0.397936
lfemur -5.61863 -16.9449 -22.7817
ltibia 23.3712
lfoot -18.8303 17.3051
ltoes -40.2068
38
root 9.14665 15.5234 22.5164 178.838 1.71413 -179.112
lowerback 8.91579 1.79756 1.77528
upperback -4.19758 2.68832 -0.124546
thorax -9.39581 1.21055 -1.58667
lowerneck -6.45418 -1.54331 -5.62027
upperneck 11.4285 -2.33698 5.3703
head 4.60353 -1.1723 2.43359
rclavicle 4.11484e-014 -1.2424e-015
rhumerus -46.0805 5.9847 -88.7426
rradius 40.346
rwrist 22.0333
rhand -7.28293 -58.798
rfingers 7.12502
rthumb 18.5987 -87.9289
lclavicle 4.11484e-014 -1.2424e-015
lhumerus -43.0398 1.4711 83.9359
lradius 36.8024
lwrist -12.7337
lhand -1.91745 -32.1006
lfingers 7.12502
lthumb 23.7526 -3.54862
rfemur 0.0437908 15.6616 25.0295
rtibia 15.8186
rfoot -14.0255 -25.5549
rtoes -0.0537425
lfemur -5.48087 -16.9814 -22.855
ltibia 23.3116
lfoot -18.8113 17.3038
ltoes -39.7495
